<mxfile host="app.diagrams.net" agent="Mozilla/5.0 (Windows NT 10.0; Win64; x64) AppleWebKit/537.36 (KHTML, like Gecko) Chrome/128.0.0.0 Safari/537.36" version="24.7.8" pages="2">
  <diagram name="Page-1" id="UsQVbe9eUdJtgQDEjqO4">
    <mxGraphModel dx="1295" dy="1431" grid="1" gridSize="10" guides="1" tooltips="1" connect="1" arrows="1" fold="1" page="1" pageScale="1" pageWidth="1200" pageHeight="1600" math="0" shadow="0">
      <root>
        <mxCell id="0" />
        <mxCell id="1" parent="0" />
        <mxCell id="76m8HocAUgvQL1CjjkNU-1" value="&lt;h1 style=&quot;margin-top: 0px;&quot;&gt;Microsoft Tutorials&lt;/h1&gt;" style="text;html=1;overflow=hidden;rounded=0;align=center;fillColor=#d80073;strokeColor=#A50040;fontColor=#ffffff;" parent="1" vertex="1">
          <mxGeometry x="480" y="20" width="350" height="50" as="geometry" />
        </mxCell>
        <mxCell id="76m8HocAUgvQL1CjjkNU-5" value="" style="edgeStyle=orthogonalEdgeStyle;rounded=0;orthogonalLoop=1;jettySize=auto;html=1;exitX=1;exitY=0.5;exitDx=0;exitDy=0;" parent="1" source="76m8HocAUgvQL1CjjkNU-2" target="76m8HocAUgvQL1CjjkNU-4" edge="1">
          <mxGeometry relative="1" as="geometry">
            <mxPoint x="360" y="220" as="sourcePoint" />
          </mxGeometry>
        </mxCell>
        <mxCell id="76m8HocAUgvQL1CjjkNU-21" style="edgeStyle=orthogonalEdgeStyle;rounded=0;orthogonalLoop=1;jettySize=auto;html=1;entryX=0.5;entryY=0;entryDx=0;entryDy=0;" parent="1" source="76m8HocAUgvQL1CjjkNU-2" target="76m8HocAUgvQL1CjjkNU-19" edge="1">
          <mxGeometry relative="1" as="geometry" />
        </mxCell>
        <mxCell id="76m8HocAUgvQL1CjjkNU-2" value="&lt;h1 style=&quot;margin-top: 0px; font-size: 20px;&quot;&gt;Create a web UI with ASP.NET Core&lt;/h1&gt;" style="text;html=1;whiteSpace=wrap;overflow=hidden;rounded=0;fontSize=20;fontColor=#e218b6;" parent="1" vertex="1">
          <mxGeometry x="10" y="210" width="350" height="40" as="geometry" />
        </mxCell>
        <mxCell id="76m8HocAUgvQL1CjjkNU-7" value="" style="edgeStyle=orthogonalEdgeStyle;rounded=0;orthogonalLoop=1;jettySize=auto;html=1;entryX=0;entryY=0.5;entryDx=0;entryDy=0;" parent="1" source="76m8HocAUgvQL1CjjkNU-4" target="76m8HocAUgvQL1CjjkNU-8" edge="1">
          <mxGeometry relative="1" as="geometry">
            <mxPoint x="710" y="230" as="targetPoint" />
          </mxGeometry>
        </mxCell>
        <mxCell id="76m8HocAUgvQL1CjjkNU-4" value="&lt;ol&gt;&lt;li&gt;Create Razor Pages&lt;/li&gt;&lt;li&gt;Use tag helpers&lt;/li&gt;&lt;li&gt;Use Razor page handlers&lt;/li&gt;&lt;/ol&gt;" style="whiteSpace=wrap;html=1;align=left;" parent="1" vertex="1">
          <mxGeometry x="420" y="200" width="190" height="60" as="geometry" />
        </mxCell>
        <mxCell id="76m8HocAUgvQL1CjjkNU-18" value="" style="edgeStyle=orthogonalEdgeStyle;rounded=0;orthogonalLoop=1;jettySize=auto;html=1;" parent="1" source="76m8HocAUgvQL1CjjkNU-8" target="76m8HocAUgvQL1CjjkNU-16" edge="1">
          <mxGeometry relative="1" as="geometry" />
        </mxCell>
        <mxCell id="76m8HocAUgvQL1CjjkNU-8" value="Tools" style="swimlane;" parent="1" vertex="1">
          <mxGeometry x="680" y="196.25" width="150" height="67.5" as="geometry" />
        </mxCell>
        <mxCell id="76m8HocAUgvQL1CjjkNU-9" value="&lt;ol&gt;&lt;li&gt;.NET CLI&lt;/li&gt;&lt;li&gt;Visual Studio Code&lt;/li&gt;&lt;/ol&gt;" style="text;html=1;align=left;verticalAlign=middle;resizable=0;points=[];autosize=1;strokeColor=none;fillColor=none;spacing=-11;" parent="76m8HocAUgvQL1CjjkNU-8" vertex="1">
          <mxGeometry x="5" y="27.5" width="140" height="40" as="geometry" />
        </mxCell>
        <mxCell id="76m8HocAUgvQL1CjjkNU-16" value="Tasks" style="swimlane;" parent="1" vertex="1">
          <mxGeometry x="900" y="167.19" width="222.5" height="125.62" as="geometry" />
        </mxCell>
        <mxCell id="76m8HocAUgvQL1CjjkNU-17" value="&lt;ol&gt;&lt;li&gt;Clone Project with built in service&lt;/li&gt;&lt;li&gt;Customize Pages&lt;/li&gt;&lt;li&gt;Create a new page&lt;/li&gt;&lt;li&gt;Register Service&lt;/li&gt;&lt;li&gt;Inject Pizza Service to PageModel&lt;/li&gt;&lt;/ol&gt;" style="text;html=1;align=left;verticalAlign=middle;resizable=0;points=[];autosize=1;strokeColor=none;fillColor=none;spacing=-11;" parent="76m8HocAUgvQL1CjjkNU-16" vertex="1">
          <mxGeometry x="2.5" y="34.370000000000005" width="220" height="80" as="geometry" />
        </mxCell>
        <mxCell id="76m8HocAUgvQL1CjjkNU-19" value="Built In" style="swimlane;" parent="1" vertex="1">
          <mxGeometry x="110" y="292.81" width="150" height="72.5" as="geometry" />
        </mxCell>
        <mxCell id="76m8HocAUgvQL1CjjkNU-20" value="&lt;ol&gt;&lt;li&gt;Service&lt;/li&gt;&lt;li&gt;DbContext&lt;/li&gt;&lt;li&gt;Sqlite&lt;/li&gt;&lt;/ol&gt;" style="text;html=1;align=left;verticalAlign=middle;resizable=0;points=[];autosize=1;strokeColor=none;fillColor=none;spacing=-11;" parent="76m8HocAUgvQL1CjjkNU-19" vertex="1">
          <mxGeometry x="5" y="22.5" width="90" height="50" as="geometry" />
        </mxCell>
        <mxCell id="5k6IDa3UJmt_ZBtU4Fmd-2" value="" style="edgeStyle=orthogonalEdgeStyle;rounded=0;orthogonalLoop=1;jettySize=auto;html=1;" parent="1" source="exW8yaBcBpH_pLhkfNhv-1" target="5k6IDa3UJmt_ZBtU4Fmd-1" edge="1">
          <mxGeometry relative="1" as="geometry" />
        </mxCell>
        <mxCell id="5k6IDa3UJmt_ZBtU4Fmd-8" value="" style="edgeStyle=orthogonalEdgeStyle;rounded=0;orthogonalLoop=1;jettySize=auto;html=1;entryX=0.5;entryY=0;entryDx=0;entryDy=0;" parent="1" source="exW8yaBcBpH_pLhkfNhv-1" target="5k6IDa3UJmt_ZBtU4Fmd-13" edge="1">
          <mxGeometry relative="1" as="geometry">
            <mxPoint x="254.9999999999999" y="500" as="targetPoint" />
          </mxGeometry>
        </mxCell>
        <mxCell id="exW8yaBcBpH_pLhkfNhv-1" value="&lt;h1 style=&quot;margin-top: 0px; font-size: 20px;&quot;&gt;Create a web API with ASP.NET Core controllers&lt;/h1&gt;" style="text;html=1;whiteSpace=wrap;overflow=hidden;rounded=0;fontSize=20;fontColor=#e218b6;" parent="1" vertex="1">
          <mxGeometry x="10" y="410" width="490" height="40" as="geometry" />
        </mxCell>
        <mxCell id="5k6IDa3UJmt_ZBtU4Fmd-18" value="" style="edgeStyle=orthogonalEdgeStyle;rounded=0;orthogonalLoop=1;jettySize=auto;html=1;" parent="1" source="exW8yaBcBpH_pLhkfNhv-2" target="5k6IDa3UJmt_ZBtU4Fmd-17" edge="1">
          <mxGeometry relative="1" as="geometry" />
        </mxCell>
        <mxCell id="5k6IDa3UJmt_ZBtU4Fmd-25" value="" style="edgeStyle=orthogonalEdgeStyle;rounded=0;orthogonalLoop=1;jettySize=auto;html=1;entryX=0.5;entryY=0;entryDx=0;entryDy=0;" parent="1" source="exW8yaBcBpH_pLhkfNhv-2" target="5k6IDa3UJmt_ZBtU4Fmd-26" edge="1">
          <mxGeometry relative="1" as="geometry">
            <mxPoint x="265" y="809.9999999999998" as="targetPoint" />
          </mxGeometry>
        </mxCell>
        <mxCell id="exW8yaBcBpH_pLhkfNhv-2" value="&lt;h1 style=&quot;margin-top: 0px; font-size: 20px;&quot;&gt;Publish a web app to Azure with Visual Studio&lt;/h1&gt;" style="text;html=1;whiteSpace=wrap;overflow=hidden;rounded=0;fontSize=20;fontColor=#e218b6;" parent="1" vertex="1">
          <mxGeometry x="20" y="700" width="490" height="40" as="geometry" />
        </mxCell>
        <mxCell id="5k6IDa3UJmt_ZBtU4Fmd-5" style="edgeStyle=orthogonalEdgeStyle;rounded=0;orthogonalLoop=1;jettySize=auto;html=1;entryX=0;entryY=0.5;entryDx=0;entryDy=0;" parent="1" source="5k6IDa3UJmt_ZBtU4Fmd-1" target="5k6IDa3UJmt_ZBtU4Fmd-3" edge="1">
          <mxGeometry relative="1" as="geometry" />
        </mxCell>
        <mxCell id="5k6IDa3UJmt_ZBtU4Fmd-1" value="&lt;ol&gt;&lt;li&gt;Create a web API project&lt;/li&gt;&lt;li&gt;Create ASP.NET Core Controllers&lt;br&gt;&lt;/li&gt;&lt;li&gt;Add CRUD operations&lt;/li&gt;&lt;li&gt;Test web API action methods&lt;/li&gt;&lt;/ol&gt;" style="whiteSpace=wrap;html=1;align=left;" parent="1" vertex="1">
          <mxGeometry x="590" y="400" width="300" height="60" as="geometry" />
        </mxCell>
        <mxCell id="5k6IDa3UJmt_ZBtU4Fmd-3" value="Tools" style="swimlane;" parent="1" vertex="1">
          <mxGeometry x="980" y="384.38" width="150" height="91.25" as="geometry" />
        </mxCell>
        <mxCell id="5k6IDa3UJmt_ZBtU4Fmd-4" value="&lt;ol&gt;&lt;li&gt;.NET HTTP REPL&lt;/li&gt;&lt;li&gt;.http files&lt;/li&gt;&lt;li&gt;VSCode&lt;/li&gt;&lt;li&gt;Http Verbs&lt;/li&gt;&lt;/ol&gt;" style="text;html=1;align=left;verticalAlign=middle;resizable=0;points=[];autosize=1;strokeColor=none;fillColor=none;spacing=-11;" parent="5k6IDa3UJmt_ZBtU4Fmd-3" vertex="1">
          <mxGeometry y="21.25" width="130" height="70" as="geometry" />
        </mxCell>
        <mxCell id="5k6IDa3UJmt_ZBtU4Fmd-13" value="Learning (Usage)" style="swimlane;whiteSpace=wrap;html=1;" parent="1" vertex="1">
          <mxGeometry x="182.5" y="510" width="145" height="120" as="geometry" />
        </mxCell>
        <mxCell id="5k6IDa3UJmt_ZBtU4Fmd-14" value="&lt;ol&gt;&lt;li&gt;ControllerBase&lt;/li&gt;&lt;li&gt;Attributes&lt;/li&gt;&lt;li&gt;Routing&lt;/li&gt;&lt;li&gt;MVC&lt;/li&gt;&lt;/ol&gt;" style="text;html=1;align=left;verticalAlign=middle;resizable=0;points=[];autosize=1;strokeColor=none;fillColor=none;" parent="5k6IDa3UJmt_ZBtU4Fmd-13" vertex="1">
          <mxGeometry x="-2.5" y="20" width="140" height="100" as="geometry" />
        </mxCell>
        <mxCell id="5k6IDa3UJmt_ZBtU4Fmd-22" style="edgeStyle=orthogonalEdgeStyle;rounded=0;orthogonalLoop=1;jettySize=auto;html=1;entryX=0;entryY=0.5;entryDx=0;entryDy=0;" parent="1" source="5k6IDa3UJmt_ZBtU4Fmd-17" target="5k6IDa3UJmt_ZBtU4Fmd-19" edge="1">
          <mxGeometry relative="1" as="geometry" />
        </mxCell>
        <mxCell id="5k6IDa3UJmt_ZBtU4Fmd-17" value="&lt;ol&gt;&lt;li&gt;Create an ASP.NET Core web app&lt;/li&gt;&lt;li&gt;Publish a web app to Azure&lt;/li&gt;&lt;li&gt;Update a web app&lt;/li&gt;&lt;/ol&gt;" style="whiteSpace=wrap;html=1;align=left;" parent="1" vertex="1">
          <mxGeometry x="620" y="665" width="280" height="110" as="geometry" />
        </mxCell>
        <mxCell id="5k6IDa3UJmt_ZBtU4Fmd-19" value="Tools" style="swimlane;" parent="1" vertex="1">
          <mxGeometry x="980" y="658.59" width="150" height="122.81" as="geometry" />
        </mxCell>
        <mxCell id="5k6IDa3UJmt_ZBtU4Fmd-20" value="&lt;ol&gt;&lt;li&gt;Visual Studio 2022&lt;/li&gt;&lt;li&gt;Azure App Service&lt;/li&gt;&lt;/ol&gt;" style="text;html=1;align=left;verticalAlign=middle;resizable=0;points=[];autosize=1;strokeColor=none;fillColor=none;spacing=-11;" parent="5k6IDa3UJmt_ZBtU4Fmd-19" vertex="1">
          <mxGeometry x="5" y="41.41" width="140" height="40" as="geometry" />
        </mxCell>
        <mxCell id="5k6IDa3UJmt_ZBtU4Fmd-26" value="Built In" style="swimlane;whiteSpace=wrap;html=1;" parent="1" vertex="1">
          <mxGeometry x="192.5" y="820" width="145" height="120" as="geometry" />
        </mxCell>
        <mxCell id="5k6IDa3UJmt_ZBtU4Fmd-27" value="&lt;ol&gt;&lt;li&gt;Workloads&lt;/li&gt;&lt;/ol&gt;" style="text;html=1;align=left;verticalAlign=middle;resizable=0;points=[];autosize=1;strokeColor=none;fillColor=none;" parent="5k6IDa3UJmt_ZBtU4Fmd-26" vertex="1">
          <mxGeometry x="-2.5" y="45" width="120" height="50" as="geometry" />
        </mxCell>
      </root>
    </mxGraphModel>
  </diagram>
  <diagram id="2mizZrZdgJAgpZiV5OGl" name="Page-2">
    <mxGraphModel dx="1295" dy="1493" grid="1" gridSize="10" guides="1" tooltips="1" connect="1" arrows="1" fold="1" page="1" pageScale="1" pageWidth="1200" pageHeight="1600" math="0" shadow="0">
      <root>
        <mxCell id="0" />
        <mxCell id="1" parent="0" />
        <mxCell id="QEKQbQ9Un-jW53u--XJ4-40" value="" style="edgeStyle=none;curved=1;rounded=0;orthogonalLoop=1;jettySize=auto;html=1;fontSize=12;startSize=8;endSize=8;" parent="1" source="VsAg3ttQNgwPowhL13yX-1" target="QEKQbQ9Un-jW53u--XJ4-39" edge="1">
          <mxGeometry relative="1" as="geometry" />
        </mxCell>
        <mxCell id="QEKQbQ9Un-jW53u--XJ4-42" value="" style="edgeStyle=none;curved=1;rounded=0;orthogonalLoop=1;jettySize=auto;html=1;fontSize=12;startSize=8;endSize=8;" parent="1" source="VsAg3ttQNgwPowhL13yX-1" target="QEKQbQ9Un-jW53u--XJ4-41" edge="1">
          <mxGeometry relative="1" as="geometry" />
        </mxCell>
        <mxCell id="VsAg3ttQNgwPowhL13yX-1" value="&lt;h1 style=&quot;margin-top: 0px; font-size: 20px;&quot;&gt;Interact with an ASP.NET Core minimal API&lt;/h1&gt;" style="text;html=1;whiteSpace=wrap;overflow=hidden;rounded=0;fontSize=20;fontColor=#184ae2;" parent="1" vertex="1">
          <mxGeometry x="10" y="250" width="490" height="40" as="geometry" />
        </mxCell>
        <mxCell id="QEKQbQ9Un-jW53u--XJ4-38" value="Develop an ASP.NET Core web app that consumes an API" style="text;html=1;whiteSpace=wrap;overflow=hidden;rounded=0;fontSize=26;fontColor=#0E2C87;fontStyle=1" parent="1" vertex="1">
          <mxGeometry x="300" y="40" width="630" height="40" as="geometry" />
        </mxCell>
        <mxCell id="PhDRm0uQ83pJ5UE0LQ-s-2" value="" style="edgeStyle=none;curved=1;rounded=0;orthogonalLoop=1;jettySize=auto;html=1;fontSize=12;startSize=8;endSize=8;entryX=0;entryY=0.5;entryDx=0;entryDy=0;" parent="1" source="QEKQbQ9Un-jW53u--XJ4-39" target="PhDRm0uQ83pJ5UE0LQ-s-3" edge="1">
          <mxGeometry relative="1" as="geometry">
            <mxPoint x="1070" y="270" as="targetPoint" />
          </mxGeometry>
        </mxCell>
        <mxCell id="QEKQbQ9Un-jW53u--XJ4-39" value="&lt;ol style=&quot;font-size: 18px;&quot;&gt;&lt;li&gt;Create Swagger documentation&lt;/li&gt;&lt;li&gt;Use Swagger Interface&lt;/li&gt;&lt;li&gt;Document API with Swashbuckle&lt;/li&gt;&lt;/ol&gt;" style="whiteSpace=wrap;html=1;align=left;" parent="1" vertex="1">
          <mxGeometry x="620" y="175" width="330" height="190" as="geometry" />
        </mxCell>
        <mxCell id="QEKQbQ9Un-jW53u--XJ4-41" value="&lt;p&gt;&lt;/p&gt;&lt;ol style=&quot;font-size: 14px;&quot;&gt;&lt;li style=&quot;&quot;&gt;Two model types of APIs&lt;/li&gt;&lt;li style=&quot;&quot;&gt;HTTP Endpoints / RESTful API&lt;/li&gt;&lt;/ol&gt;&lt;p&gt;&lt;/p&gt;" style="whiteSpace=wrap;html=1;align=left;" parent="1" vertex="1">
          <mxGeometry x="130" y="340" width="250" height="100" as="geometry" />
        </mxCell>
        <mxCell id="PhDRm0uQ83pJ5UE0LQ-s-3" value="Key Points" style="swimlane;" parent="1" vertex="1">
          <mxGeometry x="1080" y="170" width="212.5" height="200" as="geometry" />
        </mxCell>
        <mxCell id="PhDRm0uQ83pJ5UE0LQ-s-4" value="&lt;span style=&quot;background-color: initial; font-size: 13px;&quot;&gt;Annotate your code with attributes&amp;nbsp;&lt;/span&gt;&lt;div style=&quot;font-size: 13px;&quot;&gt;&lt;span style=&quot;background-color: initial; font-size: 13px;&quot;&gt;that describe your API endpoints,&amp;nbsp;&lt;/span&gt;&lt;/div&gt;&lt;div style=&quot;font-size: 13px;&quot;&gt;&lt;span style=&quot;background-color: initial; font-size: 13px;&quot;&gt;parameters, and responses&lt;/span&gt;&lt;/div&gt;" style="text;html=1;align=center;verticalAlign=middle;resizable=0;points=[];autosize=1;strokeColor=none;fillColor=none;fontSize=13;" parent="PhDRm0uQ83pJ5UE0LQ-s-3" vertex="1">
          <mxGeometry x="-3.75" y="70" width="220" height="60" as="geometry" />
        </mxCell>
        <mxCell id="9EscFIarrjC8KoFzXkU8-3" value="" style="edgeStyle=none;curved=1;rounded=0;orthogonalLoop=1;jettySize=auto;html=1;fontSize=12;startSize=8;endSize=8;entryX=0.5;entryY=0;entryDx=0;entryDy=0;" edge="1" parent="1" source="9EscFIarrjC8KoFzXkU8-1" target="9EscFIarrjC8KoFzXkU8-4">
          <mxGeometry relative="1" as="geometry">
            <mxPoint x="295" y="770" as="targetPoint" />
          </mxGeometry>
        </mxCell>
        <mxCell id="9EscFIarrjC8KoFzXkU8-1" value="&lt;h1 style=&quot;margin-top: 0px; font-size: 20px;&quot;&gt;Implement HTTP operations in ASP.NET Razor Pages&lt;/h1&gt;" style="text;html=1;whiteSpace=wrap;overflow=hidden;rounded=0;fontSize=20;fontColor=#184ae2;" vertex="1" parent="1">
          <mxGeometry y="610" width="590" height="40" as="geometry" />
        </mxCell>
        <mxCell id="9EscFIarrjC8KoFzXkU8-4" value="Learning Objectives" style="swimlane;whiteSpace=wrap;html=1;" vertex="1" parent="1">
          <mxGeometry x="18.75" y="740" width="552.5" height="190" as="geometry" />
        </mxCell>
        <mxCell id="9EscFIarrjC8KoFzXkU8-5" value="&lt;ol style=&quot;font-size: 14px;&quot;&gt;&lt;li&gt;Implement HTTP Clients in .NET Core&lt;/li&gt;&lt;li&gt;Use HTTP Clients to perform safe and unsafe operations&lt;/li&gt;&lt;li&gt;Add code to support HTTP operations in an ASP.NET Core Razor Pages app&lt;/li&gt;&lt;/ol&gt;" style="text;html=1;align=left;verticalAlign=middle;resizable=0;points=[];autosize=1;strokeColor=none;fillColor=none;fontSize=16;" vertex="1" parent="9EscFIarrjC8KoFzXkU8-4">
          <mxGeometry x="12.5" y="71" width="540" height="90" as="geometry" />
        </mxCell>
      </root>
    </mxGraphModel>
  </diagram>
</mxfile>
